<mxfile host="app.diagrams.net" modified="2023-03-01T15:08:36.974Z" agent="5.0 (Macintosh; Intel Mac OS X 10_15_7) AppleWebKit/537.36 (KHTML, like Gecko) Chrome/110.0.0.0 Safari/537.36" etag="8gGvtwrLyIG31U_v3AD3" version="15.0.6" type="github">
  <diagram id="7DnuvPgsIu2BIeJgPl5p" name="Page-1">
    <mxGraphModel dx="1238" dy="809" grid="1" gridSize="10" guides="1" tooltips="1" connect="1" arrows="1" fold="1" page="1" pageScale="1" pageWidth="827" pageHeight="1169" math="0" shadow="0">
      <root>
        <mxCell id="0" />
        <mxCell id="1" parent="0" />
        <mxCell id="6ecJX199MdogqNeRIueL-3" value="用户信息类" style="rounded=1;whiteSpace=wrap;html=1;fillColor=#d5e8d4;strokeColor=#82b366;sketch=1;" vertex="1" parent="1">
          <mxGeometry x="250" y="320" width="110" height="40" as="geometry" />
        </mxCell>
        <mxCell id="6ecJX199MdogqNeRIueL-4" style="edgeStyle=orthogonalEdgeStyle;rounded=0;orthogonalLoop=1;jettySize=auto;html=1;entryX=0;entryY=0.5;entryDx=0;entryDy=0;fillColor=#d5e8d4;strokeColor=#82b366;sketch=1;" edge="1" parent="1" source="6ecJX199MdogqNeRIueL-5" target="6ecJX199MdogqNeRIueL-3">
          <mxGeometry relative="1" as="geometry" />
        </mxCell>
        <mxCell id="6ecJX199MdogqNeRIueL-5" value="用户类" style="rounded=1;whiteSpace=wrap;html=1;sketch=1;fillColor=#d5e8d4;strokeColor=#82b366;" vertex="1" parent="1">
          <mxGeometry x="80" y="320" width="110" height="40" as="geometry" />
        </mxCell>
        <mxCell id="6ecJX199MdogqNeRIueL-6" value="用户信息类" style="rounded=1;whiteSpace=wrap;html=1;fillColor=#d5e8d4;strokeColor=#82b366;sketch=1;" vertex="1" parent="1">
          <mxGeometry x="650" y="317.5" width="110" height="40" as="geometry" />
        </mxCell>
        <mxCell id="6ecJX199MdogqNeRIueL-7" style="edgeStyle=orthogonalEdgeStyle;rounded=0;orthogonalLoop=1;jettySize=auto;html=1;entryX=0;entryY=0.5;entryDx=0;entryDy=0;fillColor=#d5e8d4;strokeColor=#82b366;sketch=1;" edge="1" parent="1" source="6ecJX199MdogqNeRIueL-8" target="6ecJX199MdogqNeRIueL-6">
          <mxGeometry relative="1" as="geometry" />
        </mxCell>
        <mxCell id="6ecJX199MdogqNeRIueL-8" value="用户类" style="rounded=1;whiteSpace=wrap;html=1;fillColor=#d5e8d4;strokeColor=#82b366;sketch=1;" vertex="1" parent="1">
          <mxGeometry x="430" y="317.5" width="110" height="40" as="geometry" />
        </mxCell>
        <mxCell id="6ecJX199MdogqNeRIueL-9" value="" style="edgeStyle=orthogonalEdgeStyle;curved=1;sketch=1;orthogonalLoop=1;jettySize=auto;html=1;" edge="1" parent="1" source="6ecJX199MdogqNeRIueL-10" target="6ecJX199MdogqNeRIueL-20">
          <mxGeometry relative="1" as="geometry" />
        </mxCell>
        <mxCell id="6ecJX199MdogqNeRIueL-10" value="客户端类：直接从容器获取用户类" style="rounded=1;whiteSpace=wrap;html=1;fillColor=#dae8fc;strokeColor=#6c8ebf;sketch=1;" vertex="1" parent="1">
          <mxGeometry x="500" y="507.5" width="200" height="55" as="geometry" />
        </mxCell>
        <mxCell id="6ecJX199MdogqNeRIueL-11" style="edgeStyle=orthogonalEdgeStyle;curved=1;sketch=1;orthogonalLoop=1;jettySize=auto;html=1;entryX=0.5;entryY=1;entryDx=0;entryDy=0;exitX=0.75;exitY=0;exitDx=0;exitDy=0;" edge="1" parent="1" source="6ecJX199MdogqNeRIueL-13" target="6ecJX199MdogqNeRIueL-3">
          <mxGeometry relative="1" as="geometry" />
        </mxCell>
        <mxCell id="6ecJX199MdogqNeRIueL-12" style="edgeStyle=orthogonalEdgeStyle;curved=1;sketch=1;orthogonalLoop=1;jettySize=auto;html=1;entryX=0.5;entryY=1;entryDx=0;entryDy=0;exitX=0.25;exitY=0;exitDx=0;exitDy=0;" edge="1" parent="1" source="6ecJX199MdogqNeRIueL-13" target="6ecJX199MdogqNeRIueL-5">
          <mxGeometry relative="1" as="geometry" />
        </mxCell>
        <mxCell id="6ecJX199MdogqNeRIueL-13" value="" style="rounded=1;whiteSpace=wrap;html=1;fillColor=#dae8fc;strokeColor=#6c8ebf;sketch=1;" vertex="1" parent="1">
          <mxGeometry x="130" y="400" width="190" height="80" as="geometry" />
        </mxCell>
        <mxCell id="6ecJX199MdogqNeRIueL-14" style="edgeStyle=orthogonalEdgeStyle;curved=1;sketch=1;orthogonalLoop=1;jettySize=auto;html=1;entryX=0.436;entryY=1.066;entryDx=0;entryDy=0;entryPerimeter=0;exitX=0.25;exitY=0;exitDx=0;exitDy=0;" edge="1" parent="1" source="6ecJX199MdogqNeRIueL-16" target="6ecJX199MdogqNeRIueL-8">
          <mxGeometry relative="1" as="geometry" />
        </mxCell>
        <mxCell id="6ecJX199MdogqNeRIueL-15" style="edgeStyle=orthogonalEdgeStyle;curved=1;sketch=1;orthogonalLoop=1;jettySize=auto;html=1;entryX=0.5;entryY=1;entryDx=0;entryDy=0;exitX=0.75;exitY=0;exitDx=0;exitDy=0;" edge="1" parent="1" source="6ecJX199MdogqNeRIueL-16" target="6ecJX199MdogqNeRIueL-6">
          <mxGeometry relative="1" as="geometry" />
        </mxCell>
        <mxCell id="6ecJX199MdogqNeRIueL-16" value="" style="rounded=1;whiteSpace=wrap;html=1;fillColor=#dae8fc;strokeColor=#6c8ebf;sketch=1;" vertex="1" parent="1">
          <mxGeometry x="470" y="397.5" width="260" height="80" as="geometry" />
        </mxCell>
        <mxCell id="6ecJX199MdogqNeRIueL-17" value="依赖" style="text;html=1;align=center;verticalAlign=middle;resizable=0;points=[];autosize=1;sketch=1;" vertex="1" parent="1">
          <mxGeometry x="195" y="320" width="40" height="20" as="geometry" />
        </mxCell>
        <mxCell id="6ecJX199MdogqNeRIueL-18" value="依赖" style="text;html=1;align=center;verticalAlign=middle;resizable=0;points=[];autosize=1;sketch=1;" vertex="1" parent="1">
          <mxGeometry x="570" y="317.5" width="40" height="20" as="geometry" />
        </mxCell>
        <mxCell id="6ecJX199MdogqNeRIueL-19" value="客户端类：&lt;br&gt;&lt;div style=&quot;text-align: left&quot;&gt;&lt;span&gt;1.创建用户类&lt;/span&gt;&lt;/div&gt;&lt;div style=&quot;text-align: left&quot;&gt;2.创建用户信息类&lt;/div&gt;&lt;div style=&quot;text-align: left&quot;&gt;3.将用户信息类主动注入到用户类&lt;/div&gt;" style="text;html=1;align=center;verticalAlign=middle;resizable=0;points=[];autosize=1;sketch=1;" vertex="1" parent="1">
          <mxGeometry x="130" y="410" width="190" height="60" as="geometry" />
        </mxCell>
        <mxCell id="6ecJX199MdogqNeRIueL-20" value="IOC容器&lt;br&gt;&lt;div style=&quot;text-align: left&quot;&gt;&lt;span&gt;1.创建用户类&lt;/span&gt;&lt;/div&gt;&lt;div style=&quot;text-align: left&quot;&gt;&lt;span&gt;2.判断用户类是否有依赖对象需要注入&lt;/span&gt;&lt;/div&gt;&lt;div style=&quot;text-align: left&quot;&gt;3.发现用户信息类需要注入，创建并将其注入&lt;/div&gt;&lt;div style=&quot;text-align: left&quot;&gt;4.由容器管理这些对象的生命周期&lt;/div&gt;" style="text;html=1;align=center;verticalAlign=middle;resizable=0;points=[];autosize=1;sketch=1;" vertex="1" parent="1">
          <mxGeometry x="475" y="397.5" width="250" height="80" as="geometry" />
        </mxCell>
        <mxCell id="6ecJX199MdogqNeRIueL-21" value="获取用户类" style="text;html=1;align=center;verticalAlign=middle;resizable=0;points=[];autosize=1;sketch=1;" vertex="1" parent="1">
          <mxGeometry x="600" y="487.5" width="80" height="20" as="geometry" />
        </mxCell>
        <mxCell id="6ecJX199MdogqNeRIueL-22" value="主动创建" style="text;html=1;align=center;verticalAlign=middle;resizable=0;points=[];autosize=1;sketch=1;" vertex="1" parent="1">
          <mxGeometry x="690" y="377.5" width="60" height="20" as="geometry" />
        </mxCell>
        <mxCell id="6ecJX199MdogqNeRIueL-23" value="主动创建" style="text;html=1;align=center;verticalAlign=middle;resizable=0;points=[];autosize=1;sketch=1;" vertex="1" parent="1">
          <mxGeometry x="440" y="375.5" width="60" height="20" as="geometry" />
        </mxCell>
        <mxCell id="6ecJX199MdogqNeRIueL-24" value="主动创建" style="text;html=1;align=center;verticalAlign=middle;resizable=0;points=[];autosize=1;sketch=1;" vertex="1" parent="1">
          <mxGeometry x="290" y="370" width="60" height="20" as="geometry" />
        </mxCell>
        <mxCell id="6ecJX199MdogqNeRIueL-25" value="主动创建" style="text;html=1;align=center;verticalAlign=middle;resizable=0;points=[];autosize=1;sketch=1;" vertex="1" parent="1">
          <mxGeometry x="100" y="370" width="60" height="20" as="geometry" />
        </mxCell>
        <mxCell id="6ecJX199MdogqNeRIueL-26" value="" style="endArrow=none;dashed=1;html=1;sketch=1;" edge="1" parent="1">
          <mxGeometry width="50" height="50" relative="1" as="geometry">
            <mxPoint x="390" y="580" as="sourcePoint" />
            <mxPoint x="390" y="260" as="targetPoint" />
          </mxGeometry>
        </mxCell>
        <mxCell id="6ecJX199MdogqNeRIueL-27" value="&lt;font style=&quot;font-size: 14px&quot;&gt;&lt;b&gt;传统模式&lt;/b&gt;&lt;/font&gt;" style="text;html=1;align=center;verticalAlign=middle;resizable=0;points=[];autosize=1;sketch=1;" vertex="1" parent="1">
          <mxGeometry x="180" y="280" width="70" height="20" as="geometry" />
        </mxCell>
        <mxCell id="6ecJX199MdogqNeRIueL-28" value="&lt;font style=&quot;font-size: 14px&quot;&gt;&lt;b&gt;控制反转&lt;/b&gt;&lt;/font&gt;" style="text;html=1;align=center;verticalAlign=middle;resizable=0;points=[];autosize=1;sketch=1;" vertex="1" parent="1">
          <mxGeometry x="555" y="280" width="70" height="20" as="geometry" />
        </mxCell>
      </root>
    </mxGraphModel>
  </diagram>
</mxfile>
